<svg xmlns="http://www.w3.org/2000/svg" width="50" height="50" viewBox="0 0 50 50" fill="none"><circle cx="25" cy="25" r="25" fill="#42D31A"></circle><path d="M26.4606 19.0609C24.6558 19.0609 22.9675 19.7754 21.6575 20.9959V14H17V35.5832H21.6575V34.065C22.9675 35.2558 24.6267 36 26.4606 36C30.6233 36 34 32.2192 34 27.5453C34 22.8714 30.6524 19.0609 26.4606 19.0609ZM25.5291 31.7429C23.8116 31.7429 22.3271 30.7009 21.6866 29.1827C21.4829 28.6766 21.3373 28.111 21.3373 27.5156C21.3373 26.9202 21.4538 26.3545 21.6866 25.8484C22.3271 24.3302 23.8116 23.2882 25.5291 23.2882C27.8579 23.2882 29.7209 25.1637 29.7209 27.5156C29.7209 29.8674 27.8579 31.7429 25.5291 31.7429Z" fill="white"></path></svg>