<svg xmlns="http://www.w3.org/2000/svg" width="52" height="52" viewBox="0 0 52 52" fill="none"><circle cx="26" cy="26" r="26" fill="#DDECFF"></circle><g clip-path="url(#clip0_185_2086)"><mask id="mask0_185_2086" style="mask-type:luminance" maskUnits="userSpaceOnUse" x="9" y="9" width="35" height="34"><path d="M9 9H43.8095V43H9V9Z" fill="white"></path></mask><g mask="url(#mask0_185_2086)"><path d="M36.1318 15.9862L40.1552 18.3091C41.4967 19.0836 41.9564 20.799 41.1818 22.1405L36.6317 30.0215" stroke="#007BFF" stroke-width="1.4" stroke-miterlimit="10" stroke-linecap="round" stroke-linejoin="round"></path><path d="M23.4735 32.457L16.8834 28.6522C15.5418 27.8777 15.0822 26.1622 15.8567 24.8207L23.3482 11.8452C24.1227 10.5036 25.8381 10.044 27.1797 10.8185L31.2032 13.1415" stroke="#007BFF" stroke-width="1.4" stroke-miterlimit="10" stroke-linecap="round" stroke-linejoin="round"></path><path d="M33.8548 41.5586V35.1474C35.7458 33.2617 36.8086 30.7011 36.8086 28.0306V25.5038V27.5915V22.8465C36.8086 22.0857 36.1918 21.4689 35.431 21.4689C34.6701 21.4689 34.0532 22.0857 34.0532 22.8465V25.2017L34.0533 19.2622C34.0533 18.5013 33.4365 17.8846 32.6757 17.8846H32.6756C31.9148 17.8846 31.298 18.5013 31.298 19.2622V25.2017V17.7561C31.298 16.9952 30.6812 16.3785 29.9203 16.3785C29.1595 16.3785 28.5427 16.9952 28.5427 17.7561V24.9374V25.2017V19.2622C28.5427 18.5013 27.9259 17.8846 27.165 17.8846C26.4042 17.8846 25.7874 18.5013 25.7874 19.2622V26.4435L25.7872 21.7032V29.0755L23.9203 26.161C23.5228 25.5404 22.757 25.2656 22.0556 25.4919C21.2229 25.7605 20.753 26.641 20.9935 27.4823L21.0462 27.6664C21.9107 30.6911 23.7747 33.3335 26.334 35.1628V41.5586" stroke="#007BFF" stroke-width="1.4" stroke-miterlimit="10" stroke-linecap="round" stroke-linejoin="round"></path><path d="M14.5639 12.3338C13.1586 12.5488 11.774 12.9323 10.4424 13.4844" stroke="#007BFF" stroke-width="1.4" stroke-miterlimit="10" stroke-linecap="round" stroke-linejoin="round"></path><path d="M22.6984 12.9727C21.0512 12.4471 19.3431 12.1671 17.6309 12.1326" stroke="#007BFF" stroke-width="1.4" stroke-miterlimit="10" stroke-linecap="round" stroke-linejoin="round"></path><path d="M17.0287 16.7247C14.8115 16.452 12.5381 16.7469 10.4424 17.6094" stroke="#007BFF" stroke-width="1.4" stroke-miterlimit="10" stroke-linecap="round" stroke-linejoin="round"></path><path d="M11.6009 21.2703C11.205 21.4163 10.8176 21.5925 10.4424 21.7988" stroke="#007BFF" stroke-width="1.4" stroke-miterlimit="10" stroke-linecap="round" stroke-linejoin="round"></path><path d="M17.7894 21.3672C16.8068 20.9689 15.7656 20.7604 14.7217 20.7417" stroke="#007BFF" stroke-width="1.4" stroke-miterlimit="10" stroke-linecap="round" stroke-linejoin="round"></path></g></g><defs><clipPath id="clip0_185_2086"><rect width="34" height="34" fill="white" transform="translate(9 9)"></rect></clipPath></defs></svg>