<svg xmlns="http://www.w3.org/2000/svg" width="50" height="50" viewBox="0 0 50 50" fill="none"><circle cx="25" cy="25" r="25" fill="#FEE500"></circle><path d="M25.0024 14.2876C30.9196 14.2878 35.7163 18.8183 35.7163 24.4067C35.7163 29.9952 30.9196 34.5257 25.0024 34.5259C24.1562 34.5259 23.3332 34.4296 22.5435 34.2544L18.1675 36.731L18.2065 32.23C15.8141 30.3742 14.2876 27.5589 14.2876 24.4067C14.2876 18.8182 19.0851 14.2876 25.0024 14.2876Z" fill="black"></path><path d="M23.5864 22.6753C23.4341 21.6597 22.647 21.0376 21.5806 21.0376C20.146 21.0376 19.2065 22.1421 19.2065 24.0718C19.2065 26.0522 20.1587 27.106 21.5679 27.106C22.6216 27.106 23.396 26.522 23.5864 25.5317L25.5161 25.5444C25.3003 27.2456 23.8784 28.7944 21.5425 28.7944C19.0796 28.7944 17.2642 27.0679 17.2642 24.0718C17.2642 21.0757 19.1177 19.3491 21.5425 19.3491C23.6626 19.3491 25.2622 20.5679 25.5161 22.6753H23.5864ZM28.6899 24.6812V28.6675H26.811V19.4761H28.6392V22.98H28.7153C29.0327 22.1802 29.731 21.6851 30.772 21.6851C32.2065 21.6851 33.1587 22.6499 33.1587 24.2749V28.6675H31.2798V24.605C31.2798 23.7544 30.8228 23.2466 30.0356 23.2466C29.2485 23.2466 28.6899 23.7671 28.6899 24.6812Z" fill="#FEE500"></path></svg>